<svg width="22" height="22" viewBox="0 0 22 22" fill="none" xmlns="http://www.w3.org/2000/svg">
<path d="M15.5391 0.166748H6.46079C2.51746 0.166748 0.166626 2.51758 0.166626 6.46092V15.5284C0.166626 19.4826 2.51746 21.8334 6.46079 21.8334H15.5283C19.4716 21.8334 21.8225 19.4826 21.8225 15.5392V6.46092C21.8333 2.51758 19.4825 0.166748 15.5391 0.166748ZM11 15.2034C8.68163 15.2034 6.79663 13.3184 6.79663 11.0001C6.79663 8.68175 8.68163 6.79675 11 6.79675C13.3183 6.79675 15.2033 8.68175 15.2033 11.0001C15.2033 13.3184 13.3183 15.2034 11 15.2034ZM17.4133 5.45341C17.3591 5.58342 17.2833 5.70258 17.1858 5.81091C17.0775 5.90841 16.9583 5.98425 16.8283 6.03841C16.6983 6.09258 16.5575 6.12508 16.4166 6.12508C16.1241 6.12508 15.8533 6.01675 15.6475 5.81091C15.55 5.70258 15.4741 5.58342 15.42 5.45341C15.3658 5.32341 15.3333 5.18258 15.3333 5.04175C15.3333 4.90091 15.3658 4.76008 15.42 4.63008C15.4741 4.48925 15.55 4.38091 15.6475 4.27258C15.8966 4.02341 16.2758 3.90425 16.6225 3.98008C16.6983 3.99091 16.7633 4.01258 16.8283 4.04508C16.8933 4.06675 16.9583 4.09925 17.0233 4.14258C17.0775 4.17508 17.1316 4.22925 17.1858 4.27258C17.2833 4.38091 17.3591 4.48925 17.4133 4.63008C17.4675 4.76008 17.5 4.90091 17.5 5.04175C17.5 5.18258 17.4675 5.32341 17.4133 5.45341Z" fill="#ECB956"/>
</svg>
