<svg width="24" height="22" viewBox="0 0 24 22" fill="none" xmlns="http://www.w3.org/2000/svg">
<path d="M23.2729 13.9225V15.1417C23.2729 15.2117 23.2319 15.2739 23.1721 15.3011C22.8063 15.4644 21.5537 16.0633 21.0329 16.8178C19.7039 18.7447 18.6884 21.5 16.4185 21.5H6.94891C3.59267 21.5 0.872925 18.6572 0.872925 15.1494V15.0367C0.872925 14.9433 0.945708 14.8675 1.03532 14.8675H6.31427C6.41878 14.8675 6.49531 14.9686 6.48601 15.0755C6.44865 15.4333 6.51213 15.7989 6.67452 16.1314C6.98812 16.7945 7.63772 17.2086 8.33958 17.2086H10.9529V15.0833H8.36945C8.23693 15.0833 8.15855 14.9239 8.23507 14.8111C8.26305 14.7664 8.29481 14.7197 8.32839 14.6672C8.57294 14.3056 8.922 13.7436 9.2692 13.1039C9.50627 12.6722 9.73585 12.2114 9.92066 11.7486C9.95801 11.665 9.98785 11.5794 10.0177 11.4958C10.0681 11.348 10.1204 11.21 10.1577 11.072C10.1951 10.9553 10.2249 10.8328 10.2548 10.718C10.3425 10.3253 10.3799 9.90916 10.3799 9.4775C10.3799 9.30834 10.3724 9.13139 10.3575 8.96223C10.35 8.77751 10.3276 8.59276 10.3052 8.40804C10.2902 8.24471 10.2623 8.08332 10.2324 7.91416C10.1951 7.66722 10.1428 7.42224 10.083 7.17526L10.0625 7.08196C10.0177 6.91276 9.9804 6.7514 9.92814 6.58224C9.78065 6.05137 9.61081 5.53417 9.43159 5.05001C9.36626 4.8575 9.29158 4.67278 9.21691 4.48807C9.10681 4.21001 8.99478 3.95724 8.89213 3.71806C8.83987 3.60916 8.79507 3.50999 8.75026 3.40889C8.69986 3.29416 8.64761 3.17943 8.59532 3.07057C8.558 2.98696 8.51505 2.90917 8.48518 2.83139L8.166 2.21694C8.12119 2.13333 8.19587 2.03416 8.28358 2.05944L10.2809 2.62332H10.2865C10.2902 2.62332 10.2921 2.62528 10.294 2.62528L10.5572 2.7011L10.8465 2.78668L10.9529 2.81776V1.58111C10.9529 0.984158 11.4121 0.5 11.9796 0.5C12.2633 0.5 12.5209 0.620557 12.7057 0.81693C12.8905 1.01334 13.0063 1.28167 13.0063 1.58111V3.41668L13.2191 3.47887C13.2359 3.48474 13.2527 3.4925 13.2676 3.50416C13.3199 3.545 13.3945 3.60526 13.4897 3.67918C13.5644 3.74137 13.6447 3.81723 13.7417 3.89501C13.934 4.05637 14.1636 4.26444 14.4156 4.50363C14.4828 4.56389 14.5481 4.62611 14.6079 4.68834C14.9327 5.00334 15.2967 5.37277 15.6439 5.78111C15.7409 5.89584 15.8361 6.0125 15.9332 6.13499C16.0303 6.25944 16.1329 6.38193 16.2225 6.50446C16.3401 6.66779 16.4671 6.83694 16.5772 7.0139C16.6295 7.09751 16.6892 7.18306 16.7396 7.26667C16.8815 7.49026 17.0065 7.72168 17.126 7.95307C17.1764 8.06 17.2287 8.17666 17.2735 8.29139C17.406 8.60056 17.5105 8.91556 17.5777 9.23056C17.5982 9.29861 17.6132 9.3725 17.6207 9.43863V9.45418C17.6431 9.54749 17.6505 9.64666 17.658 9.74776C17.6879 10.0706 17.6729 10.3933 17.6057 10.718C17.5777 10.8561 17.5404 10.9864 17.4956 11.1245C17.4508 11.2567 17.406 11.3947 17.3481 11.525C17.2361 11.7953 17.1036 12.0656 16.9468 12.3183C16.8964 12.4117 16.8367 12.5108 16.7769 12.6042C16.7116 12.7033 16.6444 12.7967 16.5847 12.8881C16.5025 13.0047 16.4148 13.1272 16.3252 13.2361C16.2449 13.3508 16.1628 13.4656 16.0732 13.5667C15.9481 13.7203 15.8287 13.8661 15.7036 14.0061C15.6289 14.0975 15.5487 14.1908 15.4665 14.2745C15.3863 14.3678 15.3041 14.4514 15.2294 14.5292C15.1044 14.6594 14.9999 14.7605 14.9121 14.8442L14.7068 15.0406C14.6769 15.0678 14.6377 15.0833 14.5967 15.0833H13.0063V17.2086H15.0073C15.4553 17.2086 15.8809 17.0433 16.2244 16.74C16.342 16.6331 16.8553 16.1703 17.462 15.4722C17.4825 15.4489 17.5087 15.4314 17.5385 15.4236L23.0657 13.7592C23.1684 13.7281 23.2729 13.8097 23.2729 13.9225Z" fill="#ECB956"/>
</svg>
